<mxfile host="app.diagrams.net" modified="2021-03-05T12:35:09.804Z" agent="5.0 (Windows NT 10.0; Win64; x64) AppleWebKit/537.36 (KHTML, like Gecko) Chrome/88.0.4324.190 Safari/537.36" etag="4DCFJeNF05F8y3_QXI43" version="14.4.3" type="github">
  <diagram id="HWNhb71qHyHHvxacxW2k" name="Page-1">
    <mxGraphModel dx="2062" dy="1931" grid="1" gridSize="10" guides="1" tooltips="1" connect="1" arrows="1" fold="1" page="1" pageScale="1" pageWidth="827" pageHeight="1169" math="0" shadow="0">
      <root>
        <mxCell id="0" />
        <mxCell id="1" parent="0" />
        <mxCell id="OcOsSw5VMK9YVhpjMN6K-51" value="" style="rounded=1;arcSize=10;dashed=0;fillColor=none;gradientColor=none;strokeWidth=2;" parent="1" vertex="1">
          <mxGeometry x="184" width="526" height="250" as="geometry" />
        </mxCell>
        <mxCell id="OcOsSw5VMK9YVhpjMN6K-39" value="" style="rounded=1;whiteSpace=wrap;html=1;" parent="1" vertex="1">
          <mxGeometry x="600" y="411" width="90" height="29" as="geometry" />
        </mxCell>
        <mxCell id="OcOsSw5VMK9YVhpjMN6K-40" value="" style="rounded=1;whiteSpace=wrap;html=1;" parent="1" vertex="1">
          <mxGeometry x="380" y="410" width="100" height="30" as="geometry" />
        </mxCell>
        <mxCell id="OcOsSw5VMK9YVhpjMN6K-38" value="" style="rounded=1;whiteSpace=wrap;html=1;" parent="1" vertex="1">
          <mxGeometry x="180" y="410" width="100" height="29" as="geometry" />
        </mxCell>
        <mxCell id="OcOsSw5VMK9YVhpjMN6K-1" value="ALTIPAL" style="pointerEvents=1;shadow=0;dashed=0;html=1;strokeColor=none;labelPosition=center;verticalLabelPosition=bottom;verticalAlign=top;align=center;fillColor=#515151;shape=mxgraph.mscae.enterprise.database_server" parent="1" vertex="1">
          <mxGeometry x="399" y="30" width="70" height="80" as="geometry" />
        </mxCell>
        <mxCell id="OcOsSw5VMK9YVhpjMN6K-2" value="" style="rounded=1;arcSize=10;dashed=0;fillColor=none;gradientColor=none;strokeWidth=2;" parent="1" vertex="1">
          <mxGeometry x="30" y="281" width="760" height="329" as="geometry" />
        </mxCell>
        <mxCell id="OcOsSw5VMK9YVhpjMN6K-3" value="" style="dashed=0;html=1;shape=mxgraph.aws3.corporate_data_center;fillColor=#7D7C7C;gradientColor=none;dashed=0;" parent="1" vertex="1">
          <mxGeometry x="70" y="261" width="30" height="42" as="geometry" />
        </mxCell>
        <mxCell id="OcOsSw5VMK9YVhpjMN6K-5" value="" style="pointerEvents=1;shadow=0;dashed=0;html=1;strokeColor=none;labelPosition=center;verticalLabelPosition=bottom;verticalAlign=top;align=center;fillColor=#515151;shape=mxgraph.mscae.system_center.central_administration_site_sql" parent="1" vertex="1">
          <mxGeometry x="433" y="520" width="51" height="55" as="geometry" />
        </mxCell>
        <mxCell id="OcOsSw5VMK9YVhpjMN6K-6" value="Serv1" style="rhombus;whiteSpace=wrap;html=1;" parent="1" vertex="1">
          <mxGeometry x="210" y="160" width="60" height="60" as="geometry" />
        </mxCell>
        <mxCell id="OcOsSw5VMK9YVhpjMN6K-7" value="Serv2" style="rhombus;whiteSpace=wrap;html=1;" parent="1" vertex="1">
          <mxGeometry x="404" y="160" width="60" height="60" as="geometry" />
        </mxCell>
        <mxCell id="OcOsSw5VMK9YVhpjMN6K-8" value="Serv3" style="rhombus;whiteSpace=wrap;html=1;" parent="1" vertex="1">
          <mxGeometry x="630" y="160" width="60" height="60" as="geometry" />
        </mxCell>
        <mxCell id="OcOsSw5VMK9YVhpjMN6K-46" style="edgeStyle=orthogonalEdgeStyle;rounded=0;orthogonalLoop=1;jettySize=auto;html=1;exitX=0.5;exitY=1;exitDx=0;exitDy=0;entryX=0;entryY=0.5;entryDx=0;entryDy=0;" parent="1" source="OcOsSw5VMK9YVhpjMN6K-9" target="OcOsSw5VMK9YVhpjMN6K-45" edge="1">
          <mxGeometry relative="1" as="geometry" />
        </mxCell>
        <mxCell id="OcOsSw5VMK9YVhpjMN6K-49" style="edgeStyle=orthogonalEdgeStyle;rounded=0;orthogonalLoop=1;jettySize=auto;html=1;exitX=0.25;exitY=1;exitDx=0;exitDy=0;entryX=0.5;entryY=1;entryDx=0;entryDy=0;" parent="1" source="OcOsSw5VMK9YVhpjMN6K-9" target="OcOsSw5VMK9YVhpjMN6K-24" edge="1">
          <mxGeometry relative="1" as="geometry" />
        </mxCell>
        <mxCell id="OcOsSw5VMK9YVhpjMN6K-9" value="Interface1" style="rounded=1;whiteSpace=wrap;html=1;" parent="1" vertex="1">
          <mxGeometry x="190" y="401" width="100" height="30" as="geometry" />
        </mxCell>
        <mxCell id="OcOsSw5VMK9YVhpjMN6K-47" style="edgeStyle=orthogonalEdgeStyle;rounded=0;orthogonalLoop=1;jettySize=auto;html=1;exitX=0.5;exitY=1;exitDx=0;exitDy=0;entryX=0.5;entryY=0;entryDx=0;entryDy=0;" parent="1" source="OcOsSw5VMK9YVhpjMN6K-10" target="OcOsSw5VMK9YVhpjMN6K-45" edge="1">
          <mxGeometry relative="1" as="geometry" />
        </mxCell>
        <mxCell id="OcOsSw5VMK9YVhpjMN6K-10" value="&lt;span&gt;Interface2&lt;/span&gt;" style="rounded=1;whiteSpace=wrap;html=1;" parent="1" vertex="1">
          <mxGeometry x="384" y="401" width="100" height="30" as="geometry" />
        </mxCell>
        <mxCell id="OcOsSw5VMK9YVhpjMN6K-48" style="edgeStyle=orthogonalEdgeStyle;rounded=0;orthogonalLoop=1;jettySize=auto;html=1;exitX=0.5;exitY=1;exitDx=0;exitDy=0;entryX=1;entryY=0.5;entryDx=0;entryDy=0;" parent="1" source="OcOsSw5VMK9YVhpjMN6K-11" target="OcOsSw5VMK9YVhpjMN6K-45" edge="1">
          <mxGeometry relative="1" as="geometry" />
        </mxCell>
        <mxCell id="OcOsSw5VMK9YVhpjMN6K-11" value="&lt;span&gt;Interface3&lt;/span&gt;" style="rounded=1;whiteSpace=wrap;html=1;" parent="1" vertex="1">
          <mxGeometry x="610" y="401" width="100" height="30" as="geometry" />
        </mxCell>
        <mxCell id="OcOsSw5VMK9YVhpjMN6K-16" value="ERP" style="strokeWidth=2;html=1;shape=mxgraph.lean_mapping.mrp_erp;whiteSpace=wrap;" parent="1" vertex="1">
          <mxGeometry x="380" y="490" width="51" height="75" as="geometry" />
        </mxCell>
        <mxCell id="OcOsSw5VMK9YVhpjMN6K-50" style="edgeStyle=orthogonalEdgeStyle;rounded=0;orthogonalLoop=1;jettySize=auto;html=1;exitX=0.5;exitY=0;exitDx=0;exitDy=0;entryX=0;entryY=0.5;entryDx=0;entryDy=0;" parent="1" source="OcOsSw5VMK9YVhpjMN6K-24" target="OcOsSw5VMK9YVhpjMN6K-9" edge="1">
          <mxGeometry relative="1" as="geometry" />
        </mxCell>
        <mxCell id="OcOsSw5VMK9YVhpjMN6K-24" value="" style="shape=image;html=1;verticalAlign=top;verticalLabelPosition=bottom;labelBackgroundColor=#ffffff;imageAspect=0;aspect=fixed;image=https://cdn4.iconfinder.com/data/icons/essential-app-2/16/gear-setting-appearance-process-128.png" parent="1" vertex="1">
          <mxGeometry x="82" y="484" width="47" height="47" as="geometry" />
        </mxCell>
        <mxCell id="OcOsSw5VMK9YVhpjMN6K-25" value="" style="shape=image;html=1;verticalAlign=top;verticalLabelPosition=bottom;labelBackgroundColor=#ffffff;imageAspect=0;aspect=fixed;image=https://cdn4.iconfinder.com/data/icons/linecon/512/time-128.png" parent="1" vertex="1">
          <mxGeometry x="70" y="471" width="30" height="30" as="geometry" />
        </mxCell>
        <mxCell id="OcOsSw5VMK9YVhpjMN6K-32" style="edgeStyle=orthogonalEdgeStyle;rounded=0;orthogonalLoop=1;jettySize=auto;html=1;exitX=0.25;exitY=1;exitDx=0;exitDy=0;entryX=0.5;entryY=0;entryDx=0;entryDy=0;" parent="1" source="OcOsSw5VMK9YVhpjMN6K-28" target="OcOsSw5VMK9YVhpjMN6K-9" edge="1">
          <mxGeometry relative="1" as="geometry" />
        </mxCell>
        <mxCell id="OcOsSw5VMK9YVhpjMN6K-33" style="edgeStyle=orthogonalEdgeStyle;rounded=0;orthogonalLoop=1;jettySize=auto;html=1;exitX=0.5;exitY=1;exitDx=0;exitDy=0;entryX=0.5;entryY=0;entryDx=0;entryDy=0;" parent="1" source="OcOsSw5VMK9YVhpjMN6K-28" target="OcOsSw5VMK9YVhpjMN6K-10" edge="1">
          <mxGeometry relative="1" as="geometry" />
        </mxCell>
        <mxCell id="OcOsSw5VMK9YVhpjMN6K-34" style="edgeStyle=orthogonalEdgeStyle;rounded=0;orthogonalLoop=1;jettySize=auto;html=1;exitX=0.75;exitY=1;exitDx=0;exitDy=0;" parent="1" source="OcOsSw5VMK9YVhpjMN6K-28" target="OcOsSw5VMK9YVhpjMN6K-11" edge="1">
          <mxGeometry relative="1" as="geometry" />
        </mxCell>
        <mxCell id="OcOsSw5VMK9YVhpjMN6K-35" style="edgeStyle=orthogonalEdgeStyle;rounded=0;orthogonalLoop=1;jettySize=auto;html=1;exitX=0.75;exitY=0;exitDx=0;exitDy=0;entryX=0.5;entryY=1;entryDx=0;entryDy=0;" parent="1" source="OcOsSw5VMK9YVhpjMN6K-28" target="OcOsSw5VMK9YVhpjMN6K-8" edge="1">
          <mxGeometry relative="1" as="geometry" />
        </mxCell>
        <mxCell id="OcOsSw5VMK9YVhpjMN6K-36" style="edgeStyle=orthogonalEdgeStyle;rounded=0;orthogonalLoop=1;jettySize=auto;html=1;exitX=0.5;exitY=0;exitDx=0;exitDy=0;entryX=0.5;entryY=1;entryDx=0;entryDy=0;" parent="1" source="OcOsSw5VMK9YVhpjMN6K-28" target="OcOsSw5VMK9YVhpjMN6K-7" edge="1">
          <mxGeometry relative="1" as="geometry" />
        </mxCell>
        <mxCell id="OcOsSw5VMK9YVhpjMN6K-37" style="edgeStyle=orthogonalEdgeStyle;rounded=0;orthogonalLoop=1;jettySize=auto;html=1;exitX=0.25;exitY=0;exitDx=0;exitDy=0;entryX=0.5;entryY=1;entryDx=0;entryDy=0;" parent="1" source="OcOsSw5VMK9YVhpjMN6K-28" target="OcOsSw5VMK9YVhpjMN6K-6" edge="1">
          <mxGeometry relative="1" as="geometry">
            <mxPoint x="240" y="260" as="targetPoint" />
          </mxGeometry>
        </mxCell>
        <mxCell id="OcOsSw5VMK9YVhpjMN6K-28" value="Controller" style="rounded=0;whiteSpace=wrap;html=1;" parent="1" vertex="1">
          <mxGeometry x="154" y="320" width="560" height="30" as="geometry" />
        </mxCell>
        <mxCell id="OcOsSw5VMK9YVhpjMN6K-4" value="" style="shape=image;html=1;verticalAlign=top;verticalLabelPosition=bottom;labelBackgroundColor=#ffffff;imageAspect=0;aspect=fixed;image=https://cdn2.iconfinder.com/data/icons/25-free-ui-icons/40/key-128.png" parent="1" vertex="1">
          <mxGeometry x="150" y="290" width="51" height="51" as="geometry" />
        </mxCell>
        <mxCell id="OcOsSw5VMK9YVhpjMN6K-45" value="" style="rounded=1;arcSize=10;dashed=0;fillColor=none;gradientColor=none;strokeWidth=2;" parent="1" vertex="1">
          <mxGeometry x="316" y="484" width="236" height="95" as="geometry" />
        </mxCell>
      </root>
    </mxGraphModel>
  </diagram>
</mxfile>
